<svg xmlns="http://www.w3.org/2000/svg" pointer-events="none" class="leaflet-zoom-animated" width="1056" height="678" viewBox="-790 186 1056 678" style="transform: translate3d(-790px, 186px, 0px);">
<g>
<path class="leaflet-interactive" stroke="black" stroke-opacity="1" stroke-width="2" stroke-linecap="round" stroke-linejoin="round" fill="#fff" fill-opacity="0.2" fill-rule="evenodd" d="M-222 542L-221 562L-214 563L-198 561L-194 559L-170 534L-181 501L-199 465L-201 453L-218 444L-219 445L-219 443L-225 443L-230 448L-238 448L-235 455L-235 459L-237 468L-242 475L-243 482L-231 510L-221 523zM-188 458L-199 458L-199 465L-191 466L-188 464z" id="澳门特别行政区"/>
<path class="leaflet-interactive" stroke="#333" stroke-opacity="1" stroke-width="1" stroke-linecap="round" stroke-linejoin="round" stroke-dasharray="1,6" fill="#eee" fill-opacity="0.5" fill-rule="evenodd" d="M-235 457L-225 454L-216 461L-215 465L-193 478L-199 465L-201 453L-207 449L-218 444L-219 445L-219 443L-225 443L-230 448L-238 448L-235 455zM-188 458L-199 458L-199 465L-191 466L-188 464z" id="花地玛堂区"/>
<path class="leaflet-interactive" stroke="#333" stroke-opacity="1" stroke-width="1" stroke-linecap="round" stroke-linejoin="round" stroke-dasharray="1,6" fill="#eee" fill-opacity="0.5" fill-rule="evenodd" d="M-236 465L-229 467L-220 458L-227 454L-235 457L-235 459z" id="花王堂区"/>
<path class="leaflet-interactive" stroke="#333" stroke-opacity="1" stroke-width="1" stroke-linecap="round" stroke-linejoin="round" stroke-dasharray="1,6" fill="#eee" fill-opacity="0.5" fill-rule="evenodd" d="M-216 464L-215 463L-220 458L-227 464L-227 466L-219 468L-216 464z" id="望德堂区"/>
<path class="leaflet-interactive" stroke="#333" stroke-opacity="1" stroke-width="1" stroke-linecap="round" stroke-linejoin="round" stroke-dasharray="1,6" fill="#eee" fill-opacity="0.5" fill-rule="evenodd" d="M-235 502L-188 488L-193 478L-216 464L-219 468L-227 466L-230 467L-235 465L-230 470L-233 475L-233 478L-235 478L-235 480L-237 480L-238 483L-243 482L-239 493z" id="大堂区"/>
<path class="leaflet-interactive" stroke="#333" stroke-opacity="1" stroke-width="1" stroke-linecap="round" stroke-linejoin="round" stroke-dasharray="1,6" fill="#eee" fill-opacity="0.5" fill-rule="evenodd" d="M-243 482L-237 483L-237 481L-233 478L-230 471L-235 465L-242 475L-243 479z" id="风顺堂区"/>
<path class="leaflet-interactive" stroke="#333" stroke-opacity="1" stroke-width="1" stroke-linecap="round" stroke-linejoin="round" stroke-dasharray="1,6" fill="#eee" fill-opacity="0.5" fill-rule="evenodd" d="M-226 515L-219 515L-216 517L-211 515L-211 513L-209 513L-206 516L-204 516L-201 513L-172 528L-181 501L-188 488L-235 502L-231 510z" id="嘉模堂区"/>
<path class="leaflet-interactive" stroke="#333" stroke-opacity="1" stroke-width="1" stroke-linecap="round" stroke-linejoin="round" stroke-dasharray="1,6" fill="#eee" fill-opacity="0.5" fill-rule="evenodd" d="M-222 542L-211 540L-211 538L-208 538L-207 534L-201 534L-197 531L-193 531L-185 521L-200 513L-206 517L-208 513L-215 517L-226 515L-221 523z" id="路凼填海区"/>
<path class="leaflet-interactive" stroke="#333" stroke-opacity="1" stroke-width="1" stroke-linecap="round" stroke-linejoin="round" stroke-dasharray="1,6" fill="#eee" fill-opacity="0.5" fill-rule="evenodd" d="M-222 542L-221 562L-214 563L-198 561L-194 559L-170 534L-172 528L-185 521L-193 531L-197 531L-201 534L-206 534L-207 538L-210 538L-211 540z" id="圣方济各堂区"/>
</g>
</svg>